<svg width="10" height="10" viewBox="0 0 10 10" fill="none" xmlns="http://www.w3.org/2000/svg">
<path d="M0.222957 9.77581C0.074319 9.62717 0 9.45567 0 9.26129C0 9.06692 0.074319 8.89542 0.222957 8.74678L7.52909 1.44065H3.84172C3.64735 1.44065 3.4787 1.36919 3.33578 1.22626C3.19286 1.08334 3.1214 0.914696 3.1214 0.720323C3.1214 0.52595 3.19286 0.357303 3.33578 0.214382C3.4787 0.0714606 3.64735 0 3.84172 0H9.27844C9.47282 0 9.64146 0.0714606 9.78439 0.214382C9.92731 0.357303 9.99877 0.52595 9.99877 0.720323V6.15705C9.99877 6.35142 9.92731 6.52006 9.78439 6.66299C9.64146 6.80591 9.47282 6.87737 9.27844 6.87737C9.08407 6.87737 8.91542 6.80591 8.7725 6.66299C8.62958 6.52006 8.55812 6.35142 8.55812 6.15705V2.45253L1.21769 9.79296C1.06905 9.9416 0.900404 10.0102 0.711748 9.99877C0.523092 9.98733 0.360161 9.91301 0.222957 9.77581Z" fill="#FFF4E0"/>
</svg>
