<svg width="16" height="16" viewBox="0 0 16 16" fill="none" xmlns="http://www.w3.org/2000/svg">
<path d="M8.00016 3.99999C8.36836 3.99999 8.66683 3.70151 8.66683 3.33332C8.66683 2.96514 8.36836 2.66666 8.00016 2.66666C7.63196 2.66666 7.3335 2.96514 7.3335 3.33332C7.3335 3.70151 7.63196 3.99999 8.00016 3.99999Z" stroke="#FFF4E0" stroke-linecap="round" stroke-linejoin="round"/>
<path d="M8.00016 8.66668C8.36836 8.66668 8.66683 8.36821 8.66683 8.00001C8.66683 7.63181 8.36836 7.33334 8.00016 7.33334C7.63196 7.33334 7.3335 7.63181 7.3335 8.00001C7.3335 8.36821 7.63196 8.66668 8.00016 8.66668Z" stroke="#FFF4E0" stroke-linecap="round" stroke-linejoin="round"/>
<path d="M8.00016 13.3333C8.36836 13.3333 8.66683 13.0349 8.66683 12.6667C8.66683 12.2985 8.36836 12 8.00016 12C7.63196 12 7.3335 12.2985 7.3335 12.6667C7.3335 13.0349 7.63196 13.3333 8.00016 13.3333Z" stroke="#FFF4E0" stroke-linecap="round" stroke-linejoin="round"/>
<path d="M12.6667 3.99999C13.0349 3.99999 13.3333 3.70151 13.3333 3.33332C13.3333 2.96514 13.0349 2.66666 12.6667 2.66666C12.2985 2.66666 12 2.96514 12 3.33332C12 3.70151 12.2985 3.99999 12.6667 3.99999Z" stroke="#FFF4E0" stroke-linecap="round" stroke-linejoin="round"/>
<path d="M12.6667 8.66668C13.0349 8.66668 13.3333 8.36821 13.3333 8.00001C13.3333 7.63181 13.0349 7.33334 12.6667 7.33334C12.2985 7.33334 12 7.63181 12 8.00001C12 8.36821 12.2985 8.66668 12.6667 8.66668Z" stroke="#FFF4E0" stroke-linecap="round" stroke-linejoin="round"/>
<path d="M12.6667 13.3333C13.0349 13.3333 13.3333 13.0349 13.3333 12.6667C13.3333 12.2985 13.0349 12 12.6667 12C12.2985 12 12 12.2985 12 12.6667C12 13.0349 12.2985 13.3333 12.6667 13.3333Z" stroke="#FFF4E0" stroke-linecap="round" stroke-linejoin="round"/>
<path d="M3.33317 3.99999C3.70136 3.99999 3.99984 3.70151 3.99984 3.33332C3.99984 2.96514 3.70136 2.66666 3.33317 2.66666C2.96498 2.66666 2.6665 2.96514 2.6665 3.33332C2.6665 3.70151 2.96498 3.99999 3.33317 3.99999Z" stroke="#FFF4E0" stroke-linecap="round" stroke-linejoin="round"/>
<path d="M3.33317 8.66668C3.70136 8.66668 3.99984 8.36821 3.99984 8.00001C3.99984 7.63181 3.70136 7.33334 3.33317 7.33334C2.96498 7.33334 2.6665 7.63181 2.6665 8.00001C2.6665 8.36821 2.96498 8.66668 3.33317 8.66668Z" stroke="#FFF4E0" stroke-linecap="round" stroke-linejoin="round"/>
<path d="M3.33317 13.3333C3.70136 13.3333 3.99984 13.0349 3.99984 12.6667C3.99984 12.2985 3.70136 12 3.33317 12C2.96498 12 2.6665 12.2985 2.6665 12.6667C2.6665 13.0349 2.96498 13.3333 3.33317 13.3333Z" stroke="#FFF4E0" stroke-linecap="round" stroke-linejoin="round"/>
</svg>
