<svg width="16" height="16" viewBox="0 0 16 16" fill="none" xmlns="http://www.w3.org/2000/svg">
<path d="M7.99967 3.99999C8.36787 3.99999 8.66634 3.70151 8.66634 3.33332C8.66634 2.96514 8.36787 2.66666 7.99967 2.66666C7.63147 2.66666 7.33301 2.96514 7.33301 3.33332C7.33301 3.70151 7.63147 3.99999 7.99967 3.99999Z" stroke="#FFF4E0" stroke-linecap="round" stroke-linejoin="round"/>
<path d="M7.99967 8.66668C8.36787 8.66668 8.66634 8.36821 8.66634 8.00001C8.66634 7.63181 8.36787 7.33334 7.99967 7.33334C7.63147 7.33334 7.33301 7.63181 7.33301 8.00001C7.33301 8.36821 7.63147 8.66668 7.99967 8.66668Z" stroke="#FFF4E0" stroke-linecap="round" stroke-linejoin="round"/>
<path d="M7.99967 13.3333C8.36787 13.3333 8.66634 13.0349 8.66634 12.6667C8.66634 12.2985 8.36787 12 7.99967 12C7.63147 12 7.33301 12.2985 7.33301 12.6667C7.33301 13.0349 7.63147 13.3333 7.99967 13.3333Z" stroke="#FFF4E0" stroke-linecap="round" stroke-linejoin="round"/>
<path d="M12.6667 3.99999C13.0349 3.99999 13.3333 3.70151 13.3333 3.33332C13.3333 2.96514 13.0349 2.66666 12.6667 2.66666C12.2985 2.66666 12 2.96514 12 3.33332C12 3.70151 12.2985 3.99999 12.6667 3.99999Z" stroke="#FFF4E0" stroke-linecap="round" stroke-linejoin="round"/>
<path d="M12.6667 8.66668C13.0349 8.66668 13.3333 8.36821 13.3333 8.00001C13.3333 7.63181 13.0349 7.33334 12.6667 7.33334C12.2985 7.33334 12 7.63181 12 8.00001C12 8.36821 12.2985 8.66668 12.6667 8.66668Z" stroke="#FFF4E0" stroke-linecap="round" stroke-linejoin="round"/>
<path d="M12.6667 13.3333C13.0349 13.3333 13.3333 13.0349 13.3333 12.6667C13.3333 12.2985 13.0349 12 12.6667 12C12.2985 12 12 12.2985 12 12.6667C12 13.0349 12.2985 13.3333 12.6667 13.3333Z" stroke="#FFF4E0" stroke-linecap="round" stroke-linejoin="round"/>
<path d="M3.33366 3.99999C3.70185 3.99999 4.00033 3.70151 4.00033 3.33332C4.00033 2.96514 3.70185 2.66666 3.33366 2.66666C2.96547 2.66666 2.66699 2.96514 2.66699 3.33332C2.66699 3.70151 2.96547 3.99999 3.33366 3.99999Z" stroke="#FFF4E0" stroke-linecap="round" stroke-linejoin="round"/>
<path d="M3.33366 8.66668C3.70185 8.66668 4.00033 8.36821 4.00033 8.00001C4.00033 7.63181 3.70185 7.33334 3.33366 7.33334C2.96547 7.33334 2.66699 7.63181 2.66699 8.00001C2.66699 8.36821 2.96547 8.66668 3.33366 8.66668Z" stroke="#FFF4E0" stroke-linecap="round" stroke-linejoin="round"/>
<path d="M3.33366 13.3333C3.70185 13.3333 4.00033 13.0349 4.00033 12.6667C4.00033 12.2985 3.70185 12 3.33366 12C2.96547 12 2.66699 12.2985 2.66699 12.6667C2.66699 13.0349 2.96547 13.3333 3.33366 13.3333Z" stroke="#FFF4E0" stroke-linecap="round" stroke-linejoin="round"/>
</svg>
