<svg width="191" height="24" viewBox="0 0 191 24" fill="none" xmlns="http://www.w3.org/2000/svg">
<path fill-rule="evenodd" clip-rule="evenodd" d="M12.0814 23.9997C9.76322 23.9997 7.83541 23.2992 6.29531 21.5158C5.65359 20.7725 5.0814 19.9623 4.55734 19.1308L4.54664 19.1147L0.696375 12.5452C0.525252 12.2538 0.378194 11.9489 0.265894 11.6281C0.0707071 11.0532 0.00386215 10.5826 0.00118835 9.97569C-0.00148544 8.30456 0.00118835 6.63076 0.00118835 4.95964C0.00118835 4.00242 -0.0228758 3.24841 0.410279 2.36606C1.18301 0.788519 2.8568 0.0371825 4.55199 0.0157921C7.05734 -0.0162934 9.57873 0.0104445 12.0814 0.0104445C14.5841 0.0104445 17.1081 -0.0162934 19.6108 0.0157921C21.306 0.0371825 22.9771 0.788519 23.7499 2.36606C24.183 3.25109 24.1563 4.0051 24.1589 4.95964C24.1589 6.63076 24.1616 8.30456 24.1589 9.97569C24.1589 10.5826 24.0921 11.0532 23.8942 11.6281C23.7846 11.9489 23.6376 12.2511 23.4638 12.5452L19.6108 19.1147L19.6001 19.1308C19.0761 19.9623 18.5039 20.7725 17.8622 21.5158C16.3247 23.2992 14.3942 23.9997 12.0761 23.9997H12.0814Z" fill="#FF3466"/>
<path fill-rule="evenodd" clip-rule="evenodd" d="M12.0601 22.842C10.1002 22.8393 8.48789 22.2858 7.17238 20.7591C6.62693 20.1281 6.08415 19.3794 5.53869 18.5131L1.69645 11.957C1.55741 11.7217 1.45046 11.4917 1.36222 11.2484C1.20714 10.7939 1.16169 10.4757 1.16169 9.97033C1.16169 8.55589 1.16169 6.88477 1.16169 4.95696C1.16169 4.06124 1.13495 3.51578 1.45313 2.8714C2.02532 1.70027 3.31142 1.18423 4.5681 1.16819C4.83281 1.16552 7.43709 1.16284 12.0628 1.16284C16.6884 1.16284 19.2927 1.16284 19.5574 1.16819C20.8168 1.18423 22.1002 1.70027 22.6724 2.8714C22.9879 3.51578 22.9612 4.06391 22.9638 4.95696C22.9638 6.88477 22.9665 8.55589 22.9638 9.97033C22.9638 10.4757 22.9157 10.7939 22.7633 11.2484C22.6777 11.4917 22.5681 11.7217 22.4291 11.957L18.5868 18.5131C18.0414 19.3794 17.4986 20.1281 16.9531 20.7591C15.6376 22.2858 14.0253 22.8366 12.0654 22.842H12.0601ZM12.0601 2.62273H4.10554C3.36757 2.62273 2.76864 3.21899 2.76864 3.95963V9.89279C2.76864 10.5158 2.91837 11.0505 3.2419 11.5853L4.53334 13.7163L7.54137 18.6816C8.45313 20.1254 10.1029 21.1254 12.0601 21.1201C14.0173 21.1254 15.667 20.1281 16.5788 18.6816L19.5868 13.7163L20.8783 11.5853C21.2018 11.0532 21.3515 10.5185 21.3515 9.89279V3.95963C21.3515 3.22167 20.7526 2.62273 20.0146 2.62273H12.0601Z" fill="#FFF4E1"/>
<path fill-rule="evenodd" clip-rule="evenodd" d="M21.3514 9.89012V3.95964C21.3514 3.22167 20.7525 2.62274 20.0145 2.62274H4.10545C3.36749 2.62274 2.76855 3.219 2.76855 3.95964V9.89279C2.76855 10.5158 2.91829 11.0505 3.24182 11.5853L4.53326 13.7163L7.54128 18.6816C8.45305 20.1254 10.1028 21.1254 12.06 21.1201C14.0172 21.1254 15.667 20.1281 16.5787 18.6816L19.5867 13.7163L20.8782 11.5853C21.2017 11.0532 21.3514 10.5185 21.3514 9.89279V9.89012Z" fill="#371853"/>
<path fill-rule="evenodd" clip-rule="evenodd" d="M13.5971 10.6923C14.9687 10.1334 16.2869 9.46498 17.3778 8.31792C17.4634 8.19493 17.4767 7.99172 17.4072 7.87407L17.2308 7.57995L17.0516 7.28049C16.9821 7.16284 16.8511 7.16819 16.7655 7.29118C15.7254 8.38477 14.4767 9.04252 13.1746 9.5853C13.7495 8.22166 14.2067 6.81792 14.1666 5.23771C14.1425 5.09332 14.0088 4.93022 13.8698 4.90348L13.5329 4.81792L13.196 4.73236C13.0677 4.70027 12.9741 4.79118 12.9955 4.94894C13.0329 6.46231 12.6158 7.81257 12.0757 9.12006C11.5169 7.7484 10.8484 6.42755 9.70134 5.33396C9.57835 5.2484 9.37514 5.23503 9.25749 5.30455L8.9607 5.48102L8.66391 5.65749C8.54626 5.72701 8.55161 5.85803 8.67461 5.94359C9.76819 6.9837 10.4259 8.23236 10.9687 9.5345C9.60509 8.95963 8.20134 8.50241 6.62113 8.54252C6.47675 8.56658 6.31364 8.70027 6.28691 8.83931L6.20134 9.17621L6.11578 9.51311C6.0837 9.64145 6.17461 9.73503 6.33236 9.71364C7.83771 9.67621 9.1853 10.0906 10.4901 10.6281C9.12113 11.1869 7.80562 11.8554 6.71471 12.9997C6.62915 13.1227 6.61578 13.3259 6.6853 13.4436L6.86177 13.7404L7.03824 14.0372C7.10776 14.1548 7.23878 14.1495 7.32434 14.0265C8.36712 12.9302 9.62113 12.2698 10.9286 11.7243C10.3511 13.0933 9.88851 14.5024 9.92862 16.0853C9.95803 16.2377 10.0971 16.3874 10.2254 16.4195L10.5623 16.5051L10.9019 16.5906C11.0302 16.6227 11.1238 16.5318 11.1024 16.3741C11.0677 14.8687 11.4821 13.5238 12.0195 12.219C12.5783 13.5853 13.2468 14.9008 14.3912 15.9917C14.5142 16.0773 14.7174 16.0906 14.835 16.0211L15.1318 15.8447L15.4286 15.6682C15.5463 15.5987 15.5409 15.4677 15.4179 15.3821C14.3217 14.3393 13.6612 13.0853 13.1158 11.7778C14.4848 12.3554 15.8939 12.8179 17.4767 12.7778C17.6211 12.7537 17.7789 12.6094 17.811 12.481L17.8965 12.1441L17.9821 11.8072C18.0142 11.6789 17.9233 11.5853 17.7655 11.6067C16.2548 11.6415 14.9046 11.2217 13.5971 10.6842V10.6923Z" fill="#FFF4E1"/>
<path d="M68.1709 5.13132C71.0532 5.3319 73.4627 7.24903 73.6445 10.1928C73.6498 10.2543 73.601 10.3081 73.5449 10.3081L70.2158 10.3159C70.0959 10.3157 70.0209 10.2542 69.9941 10.1342C69.7428 8.95515 69.0078 8.33153 67.7939 8.26999C65.2539 8.1363 64.6998 10.6979 64.8682 12.7192C64.9805 14.0748 65.5772 15.3236 66.9434 15.6391C68.3416 15.96 69.5265 15.4469 69.9678 13.9819V13.9839C69.9946 13.9065 70.0669 13.8481 70.1523 13.8481L73.4492 13.8393C73.572 13.8395 73.6659 13.9498 73.6445 14.0727C73.2675 16.225 72.045 17.698 69.9756 18.4868C68.1174 19.1953 65.5857 18.9678 63.8584 17.8315C62.1899 16.7299 61.2725 15.0292 61.1094 12.727C60.9678 10.7378 61.3796 8.6604 62.6924 7.18991C64.0613 5.66061 65.8876 4.97357 68.1709 5.13132ZM98.9219 5.18698C102.168 5.16292 104.818 7.77809 104.842 11.0239L104.855 12.8696C104.879 16.1154 102.264 18.7645 99.0186 18.7885L97.9062 18.7973C94.6604 18.8214 92.0106 16.2063 91.9863 12.9604L91.9727 11.1147C91.9489 7.86908 94.5639 5.22005 97.8096 5.19577L98.9219 5.18698ZM43.7158 5.30222C43.7907 5.30222 43.8496 5.36407 43.8496 5.43893V8.05905C43.8523 8.14455 43.7859 8.21422 43.7031 8.21432L39.9512 8.21921C39.8738 8.21943 39.8125 8.28146 39.8125 8.35886L39.8232 18.562C39.8258 18.6421 39.7618 18.7065 39.6816 18.7065L36.3662 18.7114C36.286 18.7087 36.2217 18.6444 36.2217 18.5669L36.2061 8.36374C36.206 8.28362 36.1439 8.2224 36.0664 8.22507H32.3154C32.23 8.22774 32.1653 8.16098 32.165 8.07565L32.1602 5.45261C32.1602 5.38041 32.2218 5.31856 32.2939 5.31589L43.7217 5.29929L43.7158 5.30222ZM59.2969 5.2778C59.3983 5.28066 59.4621 5.38815 59.4141 5.47897L54.7725 14.1391C54.6414 14.3798 54.5776 14.6474 54.5723 14.9174V18.5405C54.5722 18.626 54.5025 18.6979 54.417 18.7007H51.1553L51.1572 18.6977C51.0692 18.6949 51.0029 18.6257 51.0029 18.5376L50.9971 14.9145C50.997 14.6445 50.9298 14.38 50.7988 14.1421L46.1523 5.4819C46.1043 5.39109 46.1708 5.28389 46.2695 5.28366L50.0078 5.2778C50.0773 5.2778 50.1415 5.31884 50.1709 5.38034L52.6572 10.6069C52.7107 10.7165 52.8583 10.7196 52.9092 10.6128L55.3955 5.38034C55.4249 5.31618 55.4891 5.27781 55.5586 5.2778H59.2969ZM80.2324 5.28659C80.3125 5.28926 80.3817 5.35838 80.3818 5.44382L80.377 10.3667C80.377 10.4549 80.4467 10.5239 80.5322 10.5239L85.0537 10.5298C85.1391 10.5269 85.208 10.457 85.208 10.3716L85.2139 5.44675C85.2139 5.3612 85.2807 5.29441 85.3662 5.2944H88.6953C88.7674 5.29718 88.8261 5.35586 88.8262 5.42526L88.8125 18.5727C88.8123 18.6421 88.7564 18.6977 88.6816 18.6977H85.3506C85.2677 18.6951 85.1983 18.626 85.1982 18.5405L85.2031 13.6157C85.2031 13.5301 85.1334 13.4604 85.0479 13.4604L80.5264 13.4546C80.4409 13.4574 80.3711 13.5273 80.3711 13.6128L80.3662 18.5376C80.3662 18.623 80.2995 18.6897 80.2168 18.6899H76.8877C76.8155 18.6872 76.7568 18.6286 76.7568 18.5591L76.7695 5.41159C76.7698 5.34227 76.8267 5.28659 76.9014 5.28659H80.2324ZM98.1953 8.31589C96.8184 8.32926 95.7089 9.45462 95.7168 10.8315L95.7324 13.1958C95.7433 14.5726 96.8665 15.685 98.2461 15.6743H98.6338C100.011 15.6608 101.12 14.5346 101.109 13.1577L101.094 10.7944H101.096C101.085 9.4175 99.9625 8.30536 98.583 8.31589H98.1953Z" fill="#FFF4E1"/>
<path opacity="0.5" d="M185.204 19V8.63636H186.742V10.2017H186.85C187.039 9.68892 187.381 9.27284 187.876 8.95347C188.371 8.63411 188.929 8.47443 189.549 8.47443C189.666 8.47443 189.812 8.47668 189.988 8.48117C190.163 8.48567 190.296 8.49242 190.386 8.50142V10.1207C190.332 10.1072 190.208 10.087 190.015 10.06C189.826 10.0285 189.626 10.0128 189.414 10.0128C188.911 10.0128 188.461 10.1185 188.065 10.3299C187.674 10.5368 187.363 10.8247 187.134 11.1935C186.909 11.5579 186.796 11.974 186.796 12.4418V19H185.204Z" fill="#FFF4E1"/>
<path opacity="0.5" d="M178.491 19.2159C177.493 19.2159 176.631 18.9955 175.907 18.5547C175.187 18.1094 174.632 17.4887 174.24 16.6925C173.854 15.8918 173.66 14.9607 173.66 13.8992C173.66 12.8376 173.854 11.902 174.24 11.0923C174.632 10.2782 175.176 9.64395 175.873 9.18964C176.575 8.73084 177.394 8.50143 178.329 8.50143C178.869 8.50143 179.402 8.5914 179.928 8.77132C180.455 8.95124 180.934 9.24362 181.365 9.64845C181.797 10.0488 182.141 10.5796 182.398 11.2408C182.654 11.902 182.782 12.7162 182.782 13.6833V14.358H174.794V12.9815H181.163C181.163 12.3968 181.046 11.875 180.812 11.4162C180.583 10.9574 180.254 10.5953 179.827 10.3299C179.404 10.0645 178.905 9.93183 178.329 9.93183C177.695 9.93183 177.146 10.0893 176.683 10.4041C176.224 10.7145 175.871 11.1193 175.624 11.6186C175.376 12.1179 175.252 12.6532 175.252 13.2244V14.1421C175.252 14.9247 175.387 15.5882 175.657 16.1325C175.932 16.6722 176.312 17.0838 176.798 17.3672C177.283 17.6461 177.848 17.7855 178.491 17.7855C178.909 17.7855 179.287 17.727 179.625 17.6101C179.967 17.4886 180.261 17.3087 180.509 17.0703C180.756 16.8274 180.947 16.5261 181.082 16.1662L182.62 16.598C182.458 17.1198 182.186 17.5786 181.804 17.9744C181.422 18.3658 180.949 18.6717 180.387 18.8921C179.825 19.108 179.193 19.2159 178.491 19.2159Z" fill="#FFF4E1"/>
<path opacity="0.5" d="M167.392 19V8.63636H168.93V10.2017H169.038C169.227 9.68892 169.569 9.27284 170.063 8.95347C170.558 8.63411 171.116 8.47443 171.737 8.47443C171.854 8.47443 172 8.47668 172.175 8.48117C172.351 8.48567 172.483 8.49242 172.573 8.50142V10.1207C172.519 10.1072 172.396 10.087 172.202 10.06C172.013 10.0285 171.813 10.0128 171.602 10.0128C171.098 10.0128 170.648 10.1185 170.252 10.3299C169.861 10.5368 169.551 10.8247 169.321 11.1935C169.096 11.5579 168.984 11.974 168.984 12.4418V19H167.392Z" fill="#FFF4E1"/>
<path opacity="0.5" d="M160.265 19.2159C159.33 19.2159 158.509 18.9933 157.803 18.548C157.101 18.1026 156.552 17.4797 156.156 16.679C155.765 15.8783 155.569 14.9427 155.569 13.8722C155.569 12.7926 155.765 11.8503 156.156 11.0451C156.552 10.24 157.101 9.61472 157.803 9.1694C158.509 8.72409 159.33 8.50143 160.265 8.50143C161.201 8.50143 162.02 8.72409 162.721 9.1694C163.428 9.61472 163.976 10.24 164.368 11.0451C164.763 11.8503 164.961 12.7926 164.961 13.8722C164.961 14.9427 164.763 15.8783 164.368 16.679C163.976 17.4797 163.428 18.1026 162.721 18.548C162.02 18.9933 161.201 19.2159 160.265 19.2159ZM160.265 17.7855C160.976 17.7855 161.561 17.6034 162.02 17.239C162.478 16.8747 162.818 16.3956 163.038 15.8019C163.259 15.2081 163.369 14.5649 163.369 13.8722C163.369 13.1795 163.259 12.534 163.038 11.9357C162.818 11.3375 162.478 10.8539 162.02 10.4851C161.561 10.1163 160.976 9.93183 160.265 9.93183C159.555 9.93183 158.97 10.1163 158.511 10.4851C158.052 10.8539 157.713 11.3375 157.492 11.9357C157.272 12.534 157.162 13.1795 157.162 13.8722C157.162 14.5649 157.272 15.2081 157.492 15.8019C157.713 16.3956 158.052 16.8747 158.511 17.239C158.97 17.6034 159.555 17.7855 160.265 17.7855Z" fill="#FFF4E1"/>
<path opacity="0.5" d="M153.138 5.18182V19H151.546V5.18182H153.138Z" fill="#FFF4E1"/>
<path opacity="0.5" d="M139.968 22.8864V8.63638H141.506V10.2827H141.695C141.812 10.1028 141.974 9.87336 142.181 9.59447C142.392 9.31109 142.694 9.0592 143.085 8.83879C143.481 8.61389 144.016 8.50143 144.691 8.50143C145.563 8.50143 146.333 8.71959 146.998 9.15591C147.664 9.59222 148.184 10.2107 148.557 11.0114C148.93 11.812 149.117 12.7566 149.117 13.8452C149.117 14.9427 148.93 15.8941 148.557 16.6992C148.184 17.4999 147.666 18.1206 147.005 18.5614C146.344 18.9978 145.581 19.2159 144.718 19.2159C144.052 19.2159 143.519 19.1057 143.119 18.8853C142.718 18.6604 142.41 18.4063 142.194 18.1229C141.978 17.835 141.812 17.5966 141.695 17.4077H141.56V22.8864H139.968ZM141.533 13.8182C141.533 14.6009 141.648 15.2913 141.877 15.8896C142.107 16.4833 142.442 16.9489 142.883 17.2862C143.323 17.6191 143.863 17.7855 144.502 17.7855C145.168 17.7855 145.723 17.6101 146.168 17.2592C146.618 16.9039 146.956 16.4271 147.18 15.8288C147.41 15.2261 147.525 14.5559 147.525 13.8182C147.525 13.0895 147.412 12.4328 147.187 11.848C146.967 11.2588 146.632 10.7932 146.182 10.4514C145.737 10.105 145.177 9.93183 144.502 9.93183C143.854 9.93183 143.31 10.096 142.869 10.4244C142.428 10.7482 142.095 11.2025 141.87 11.7873C141.646 12.3676 141.533 13.0445 141.533 13.8182Z" fill="#FFF4E1"/>
<path opacity="0.5" d="M130.895 8.63635L133.378 12.8736L135.861 8.63635H137.696L134.349 13.8182L137.696 19H135.861L133.378 14.9787L130.895 19H129.06L132.352 13.8182L129.06 8.63635H130.895Z" fill="#FFF4E1"/>
<path opacity="0.5" d="M118.567 19V5.18182H126.907V6.6662H120.241V11.3352H126.475V12.8196H120.241V17.5156H127.015V19H118.567Z" fill="#FFF4E1"/>
</svg>
