<svg width="105" height="24" viewBox="0 0 105 24" fill="none" xmlns="http://www.w3.org/2000/svg">
<path fill-rule="evenodd" clip-rule="evenodd" d="M12.0815 24C9.76332 24 7.83549 23.2995 6.29537 21.516C5.65365 20.7727 5.08145 19.9625 4.55738 19.131L4.54669 19.1149L0.696383 12.5453C0.525258 12.2539 0.378198 11.9491 0.265897 11.6282C0.0707078 11.0533 0.00386219 10.5827 0.00118837 9.97579C-0.00148546 8.30465 0.00118837 6.63083 0.00118837 4.95969C0.00118837 4.00246 -0.022876 3.24845 0.410283 2.36608C1.18302 0.788527 2.85683 0.0371829 4.55204 0.0157923C7.05741 -0.0162936 9.57883 0.0104446 12.0815 0.0104446C14.5842 0.0104446 17.1083 -0.0162936 19.611 0.0157923C21.3062 0.0371829 22.9774 0.788527 23.7501 2.36608C24.1833 3.25112 24.1565 4.00514 24.1592 4.95969C24.1592 6.63083 24.1619 8.30465 24.1592 9.97579C24.1592 10.5827 24.0923 11.0533 23.8945 11.6282C23.7849 11.9491 23.6378 12.2512 23.464 12.5453L19.611 19.1149L19.6003 19.131C19.0762 19.9625 18.5041 20.7727 17.8623 21.516C16.3249 23.2995 14.3944 24 12.0762 24H12.0815Z" fill="#FF3466"/>
<path fill-rule="evenodd" clip-rule="evenodd" d="M12.0602 22.8422C10.1003 22.8395 8.48798 22.2861 7.17245 20.7593C6.62699 20.1283 6.08421 19.3796 5.53875 18.5133L1.69646 11.9571C1.55742 11.7218 1.45047 11.4918 1.36223 11.2485C1.20715 10.794 1.1617 10.4758 1.1617 9.97043C1.1617 8.55598 1.1617 6.88484 1.1617 4.95701C1.1617 4.06128 1.13496 3.51582 1.45314 2.87143C2.02534 1.70029 3.31145 1.18424 4.56815 1.1682C4.83286 1.16553 7.43716 1.16285 12.0629 1.16285C16.6886 1.16285 19.2929 1.16285 19.5576 1.1682C20.817 1.18424 22.1004 1.70029 22.6726 2.87143C22.9881 3.51582 22.9614 4.06395 22.9641 4.95701C22.9641 6.88484 22.9667 8.55598 22.9641 9.97043C22.9641 10.4758 22.9159 10.794 22.7635 11.2485C22.678 11.4918 22.5683 11.7218 22.4293 11.9571L18.587 18.5133C18.0416 19.3796 17.4988 20.1283 16.9533 20.7593C15.6378 22.2861 14.0255 22.8369 12.0656 22.8422H12.0602ZM12.0602 2.62276H4.10558C3.3676 2.62276 2.76867 3.21902 2.76867 3.95967V9.89289C2.76867 10.5159 2.9184 11.0507 3.24193 11.5854L4.53339 13.7165L7.54144 18.6817C8.45322 20.1256 10.103 21.1256 12.0602 21.1203C14.0174 21.1256 15.6672 20.1283 16.579 18.6817L19.587 13.7165L20.8785 11.5854C21.202 11.0533 21.3517 10.5186 21.3517 9.89289V3.95967C21.3517 3.2217 20.7528 2.62276 20.0148 2.62276H12.0602Z" fill="#FFF4E1"/>
<path fill-rule="evenodd" clip-rule="evenodd" d="M21.3517 9.89022V3.95968C21.3517 3.2217 20.7527 2.62277 20.0147 2.62277H4.10549C3.36752 2.62277 2.76858 3.21903 2.76858 3.95968V9.8929C2.76858 10.5159 2.91832 11.0507 3.24185 11.5854L4.53331 13.7165L7.54136 18.6818C8.45313 20.1256 10.1029 21.1256 12.0601 21.1203C14.0174 21.1256 15.6671 20.1283 16.5789 18.6818L19.5869 13.7165L20.8784 11.5854C21.2019 11.0533 21.3517 10.5186 21.3517 9.8929V9.89022Z" fill="#371853"/>
<path fill-rule="evenodd" clip-rule="evenodd" d="M13.5972 10.6924C14.9689 10.1335 16.2871 9.46508 17.378 8.31801C17.4636 8.19501 17.4769 7.9918 17.4074 7.87415L17.2309 7.58003L17.0518 7.28056C16.9823 7.16291 16.8512 7.16826 16.7657 7.29126C15.7256 8.38485 14.4769 9.04261 13.1747 9.5854C13.7496 8.22175 14.2068 6.81799 14.1667 5.23776C14.1427 5.09337 14.009 4.93027 13.8699 4.90353L13.533 4.81797L13.1961 4.73241C13.0678 4.70032 12.9742 4.79123 12.9956 4.94899C13.033 6.46237 12.6159 7.81265 12.0758 9.12015C11.517 7.74848 10.8485 6.42761 9.70144 5.33402C9.57845 5.24846 9.37524 5.23509 9.25759 5.30461L8.96079 5.48108L8.664 5.65755C8.54635 5.72707 8.5517 5.85809 8.67469 5.94365C9.76829 6.98377 10.426 8.23244 10.9688 9.5346C9.60519 8.95972 8.20143 8.5025 6.6212 8.54261C6.47681 8.56667 6.31371 8.70036 6.28697 8.8394L6.20141 9.1763L6.11585 9.51321C6.08376 9.64155 6.17467 9.73513 6.33242 9.71374C7.83779 9.67631 9.18539 10.0908 10.4902 10.6282C9.12122 11.187 7.8057 11.8555 6.71478 12.9999C6.62922 13.1229 6.61585 13.3261 6.68537 13.4437L6.86184 13.7405L7.03831 14.0373C7.10783 14.155 7.23885 14.1496 7.32441 14.0266C8.3672 12.9304 9.62123 12.2699 10.9287 11.7245C10.3512 13.0935 9.88861 14.5026 9.92872 16.0855C9.95813 16.2379 10.0972 16.3876 10.2255 16.4197L10.5624 16.5053L10.902 16.5908C11.0303 16.6229 11.1239 16.532 11.1025 16.3742C11.0678 14.8689 11.4822 13.5239 12.0196 12.2191C12.5785 13.5854 13.2469 14.901 14.3913 15.9919C14.5143 16.0774 14.7175 16.0908 14.8352 16.0213L15.132 15.8448L15.4288 15.6683C15.5464 15.5988 15.5411 15.4678 15.4181 15.3822C14.3218 14.3395 13.6614 13.0854 13.1159 11.7779C14.4849 12.3555 15.894 12.8181 17.4769 12.7779C17.6213 12.7539 17.7791 12.6095 17.8112 12.4811L17.8967 12.1442L17.9823 11.8073C18.0144 11.679 17.9235 11.5854 17.7657 11.6068C16.255 11.6416 14.9047 11.2218 13.5972 10.6843V10.6924Z" fill="#FFF4E1"/>
<path d="M68.1716 5.13162C71.0539 5.3322 73.4635 7.24936 73.6453 10.1932C73.6504 10.2545 73.6017 10.3075 73.5457 10.3075L70.2165 10.3162C70.0965 10.3161 70.0216 10.2538 69.9949 10.1336C69.7435 8.95476 69.0083 8.33186 67.7946 8.27032C65.2545 8.13663 64.7004 10.6982 64.8688 12.7196C64.9811 14.0752 65.5778 15.324 66.944 15.6395C68.3425 15.9604 69.5273 15.4466 69.9685 13.9813V13.9842C69.9952 13.9067 70.0675 13.8475 70.1531 13.8475L73.45 13.8397C73.5726 13.8399 73.6663 13.9494 73.6453 14.0721C73.2683 16.2246 72.0458 17.6984 69.9763 18.4872C68.1181 19.1957 65.5863 18.9681 63.859 17.8319C62.1906 16.7303 61.2731 15.0296 61.11 12.7274C60.9683 10.7381 61.3802 8.66079 62.693 7.19023C64.062 5.66082 65.8882 4.97386 68.1716 5.13162ZM98.9229 5.18728C102.169 5.16322 104.819 7.7783 104.843 11.0243L104.857 12.869C104.881 16.115 102.266 18.7649 99.0196 18.789L97.9072 18.7968C94.6612 18.8209 92.0113 16.2058 91.9873 12.9598L91.9736 11.1151C91.9497 7.86929 94.5648 5.21937 97.8106 5.19509L98.9229 5.18728ZM43.7163 5.30252C43.7911 5.30252 43.8501 5.36437 43.8501 5.43924V8.05938C43.8526 8.14481 43.7863 8.21455 43.7036 8.21466L39.9516 8.21954C39.8744 8.21976 39.8132 8.28104 39.8129 8.35821L39.8236 18.5624C39.8261 18.6424 39.7621 18.7059 39.682 18.706L36.3666 18.7118C36.2864 18.7092 36.222 18.6448 36.222 18.5673L36.2064 8.36407C36.2064 8.28386 36.1443 8.22272 36.0668 8.2254H32.3158C32.2302 8.22807 32.1654 8.16057 32.1654 8.07501L32.1605 5.45193C32.1607 5.37987 32.2222 5.31886 32.2943 5.31619L43.7221 5.29959L43.7163 5.30252ZM59.2975 5.2781C59.3989 5.28097 59.4628 5.38845 59.4147 5.47928L54.773 14.1395C54.642 14.3801 54.5782 14.6478 54.5728 14.9178V18.5409C54.5726 18.6263 54.5029 18.6984 54.4175 18.7011H51.1558L51.1577 18.6982C51.0697 18.6953 51.0035 18.6261 51.0034 18.538L50.9976 14.9149C50.9976 14.6449 50.9303 14.3804 50.7993 14.1425L46.1528 5.48123C46.1049 5.39046 46.1713 5.28419 46.27 5.28396L50.0083 5.2781C50.0777 5.2781 50.1419 5.3183 50.1714 5.37967L52.6578 10.6073C52.7112 10.7169 52.8589 10.7191 52.9097 10.6121L55.3961 5.37967C55.4255 5.31564 55.4897 5.27811 55.5592 5.2781H59.2975ZM80.2332 5.28591C80.3134 5.28859 80.3826 5.35858 80.3827 5.44412L80.3778 10.367C80.378 10.4551 80.4476 10.5242 80.533 10.5242L85.0546 10.5301C85.14 10.5273 85.2089 10.4574 85.2089 10.3719L85.2147 5.44705C85.2147 5.36149 85.2815 5.29471 85.3671 5.2947H88.6962C88.7683 5.29749 88.8271 5.35612 88.8271 5.42556L88.8134 18.5722C88.8134 18.6417 88.7574 18.6982 88.6825 18.6982H85.3515C85.2687 18.6955 85.1993 18.6263 85.1991 18.5409L85.204 13.6151C85.2039 13.5297 85.1342 13.4598 85.0487 13.4598L80.5272 13.4549C80.4418 13.4578 80.3719 13.5277 80.3719 13.6131L80.367 18.538C80.367 18.6234 80.3003 18.6902 80.2176 18.6903H76.8885C76.8164 18.6877 76.7577 18.6289 76.7576 18.5595L76.7703 5.41189C76.7704 5.34246 76.8273 5.28591 76.9021 5.28591H80.2332ZM98.1963 8.31622C96.8193 8.32959 95.7098 9.45486 95.7178 10.8319L95.7334 13.1952C95.7441 14.5722 96.8674 15.6844 98.2471 15.6737H98.6348C100.012 15.6602 101.121 14.535 101.11 13.1581L101.095 10.7948H101.097C101.086 9.41785 99.9636 8.30569 98.584 8.31622H98.1963Z" fill="#FFF4E1"/>
</svg>
